<?xml version="1.0" encoding="UTF-8" standalone="no"?>
<!DOCTYPE score-partwise PUBLIC "-//Recordare//DTD MusicXML 2.0 Partwise//EN" "http://www.musicxml.org/dtds/partwise.dtd">
<score-partwise version="2.0">
 <work>
  <work-title>Mein Herz das ist begraben</work-title>
 </work>
 <identification>
  <creator type="composer">31. Dezember 1823</creator>
  <creator type="poet"></creator>
  <rights></rights>
  <encoding>
   <software>Neuratron PhotoScore</software>
   <encoding-description>MusicXML 2.0</encoding-description>
  </encoding>
  <source>Scanned sheet music</source>
 </identification>
 <defaults>
  <scaling>
   <millimeters>63</millimeters>
   <tenths>400</tenths>
  </scaling>
  <page-layout>
   <page-height>1896</page-height>
   <page-width>1370</page-width>
  </page-layout>
 </defaults>
 <part-list>
  <score-part id="P1">
   <part-name></part-name>
   <part-abbreviation></part-abbreviation>
   <score-instrument id="P1-I1">
    <instrument-name></instrument-name>
   </score-instrument>
   <midi-instrument id="P1-I1">
    <midi-channel>1</midi-channel>
    <midi-program>1</midi-program>
   </midi-instrument>
  </score-part>
  <score-part id="P2">
   <part-name></part-name>
   <part-abbreviation></part-abbreviation>
   <score-instrument id="P2-I1">
    <instrument-name></instrument-name>
   </score-instrument>
   <midi-instrument id="P2-I1">
    <midi-channel>2</midi-channel>
    <midi-program>1</midi-program>
   </midi-instrument>
  </score-part>
  <score-part id="P3">
   <part-name></part-name>
   <part-abbreviation></part-abbreviation>
   <score-instrument id="P3-I1">
    <instrument-name></instrument-name>
   </score-instrument>
   <midi-instrument id="P3-I1">
    <midi-channel>3</midi-channel>
    <midi-program>1</midi-program>
   </midi-instrument>
  </score-part>
 </part-list>
 <part id="P1">
  <measure number="1">
   <attributes>
    <divisions>4</divisions>
    <key>
     <fifths>3</fifths>
    </key>
    <time>
     <beats>3</beats>
     <beat-type>8</beat-type>
    </time>
    <clef number="1">
     <sign>G</sign>
     <line>2</line>
    </clef>
   </attributes>
   <direction placement="above">
    <direction-type>
     <words relative-y="-112" relative-x="-19">2.</words>
    </direction-type>
    <offset>0</offset>
   </direction>
   <note>
    <pitch>
     <step>C</step>
     <alter>1</alter>
     <octave>5</octave>
    </pitch>
    <duration>2</duration>
    <voice>1</voice>
    <type>eighth</type>
    <stem>down</stem>
    <lyric number="1">
     <syllabic>single</syllabic>
     <text>Mein</text>
    </lyric>
    <lyric number="2">
     <syllabic>single</syllabic>
     <text>Was</text>
    </lyric>
    <lyric number="3">
     <syllabic>single</syllabic>
     <text>Wo</text>
    </lyric>
   </note>
   <note>
    <rest/>
    <duration>2</duration>
    <voice>1</voice>
    <type>eighth</type>
   </note>
   <note>
    <rest/>
    <duration>2</duration>
    <voice>1</voice>
    <type>eighth</type>
   </note>
  </measure>
  <measure number="2">
   <note>
    <pitch>
     <step>B</step>
     <alter>1</alter>
     <octave>4</octave>
    </pitch>
    <duration>4</duration>
    <voice>1</voice>
    <type>quarter</type>
    <accidental>sharp</accidental>
    <stem>down</stem>
    <lyric number="1">
     <syllabic>single</syllabic>
     <text>Herz</text>
    </lyric>
    <lyric number="2">
     <syllabic>single</syllabic>
     <text>sol}</text>
    </lyric>
    <lyric number="3">
     <syllabic>single</syllabic>
     <text>sic</text>
    </lyric>
   </note>
   <note>
    <pitch>
     <step>C</step>
     <alter>1</alter>
     <octave>5</octave>
    </pitch>
    <duration>2</duration>
    <voice>1</voice>
    <type>eighth</type>
    <stem>down</stem>
    <lyric number="1">
     <syllabic>single</syllabic>
     <text>das</text>
    </lyric>
    <lyric number="2">
     <syllabic>single</syllabic>
     <text>der</text>
    </lyric>
    <lyric number="3">
     <syllabic>single</syllabic>
     <text>mein</text>
    </lyric>
   </note>
  </measure>
  <measure number="3">
   <note>
    <pitch>
     <step>B</step>
     <alter>1</alter>
     <octave>4</octave>
    </pitch>
    <duration>4</duration>
    <voice>1</voice>
    <type>quarter</type>
    <accidental>sharp</accidental>
    <stem>down</stem>
    <lyric number="1">
     <syllabic>single</syllabic>
     <text>ist</text>
    </lyric>
    <lyric number="2">
     <syllabic>single</syllabic>
     <text>FuB</text>
    </lyric>
    <lyric number="3">
     <syllabic>single</syllabic>
     <text>Herz</text>
    </lyric>
   </note>
   <note>
    <pitch>
     <step>C</step>
     <alter>1</alter>
     <octave>5</octave>
    </pitch>
    <duration>2</duration>
    <voice>1</voice>
    <type>eighth</type>
    <stem>down</stem>
    <lyric number="1">
     <syllabic>single</syllabic>
     <text>be-</text>
    </lyric>
    <lyric number="2">
     <syllabic>single</syllabic>
     <text>noch</text>
    </lyric>
    <lyric number="3">
     <syllabic>single</syllabic>
     <text>be-</text>
    </lyric>
   </note>
  </measure>
  <measure number="4">
   <note>
    <pitch>
     <step>E</step>
     <octave>5</octave>
    </pitch>
    <duration>4</duration>
    <voice>1</voice>
    <type>quarter</type>
    <stem>down</stem>
    <notations>
     <slur type="start" number="1"/>
    </notations>
    <lyric number="1">
     <syllabic>single</syllabic>
     <text>gra-</text>
    </lyric>
    <lyric number="2">
     <syllabic>single</syllabic>
     <text>wan-</text>
    </lyric>
    <lyric number="3">
     <syllabic>single</syllabic>
     <text>gra-</text>
    </lyric>
   </note>
   <note>
    <pitch>
     <step>D</step>
     <octave>5</octave>
    </pitch>
    <duration>2</duration>
    <voice>1</voice>
    <type>eighth</type>
    <stem>down</stem>
    <notations>
     <slur type="stop" number="1"/>
    </notations>
   </note>
  </measure>
  <measure number="5">
   <note>
    <pitch>
     <step>C</step>
     <alter>1</alter>
     <octave>5</octave>
    </pitch>
    <duration>2</duration>
    <voice>1</voice>
    <type>eighth</type>
    <stem>down</stem>
    <lyric number="1">
     <syllabic>single</syllabic>
     <text>ben'</text>
    </lyric>
    <lyric number="2">
     <syllabic>single</syllabic>
     <text>dem,</text>
    </lyric>
    <lyric number="3">
     <syllabic>single</syllabic>
     <text>ben,</text>
    </lyric>
   </note>
   <note>
    <rest/>
    <duration>2</duration>
    <voice>1</voice>
    <type>eighth</type>
   </note>
   <note>
    <pitch>
     <step>C</step>
     <alter>1</alter>
     <octave>5</octave>
    </pitch>
    <duration>2</duration>
    <voice>1</voice>
    <type>eighth</type>
    <stem>down</stem>
    <lyric number="1">
     <syllabic>single</syllabic>
     <text>be-</text>
    </lyric>
    <lyric number="2">
     <syllabic>single</syllabic>
     <text>noeh</text>
    </lyric>
    <lyric number="3">
     <syllabic>single</syllabic>
     <text>be-</text>
    </lyric>
   </note>
  </measure>
  <measure number="6">
   <print new-system="yes"/>
   <note>
    <pitch>
     <step>C</step>
     <alter>1</alter>
     <octave>5</octave>
    </pitch>
    <duration>4</duration>
    <voice>1</voice>
    <type>quarter</type>
    <stem>down</stem>
    <notations>
     <slur type="start" number="1"/>
    </notations>
    <lyric number="1">
     <syllabic>single</syllabic>
     <text>gra-</text>
    </lyric>
    <lyric number="2">
     <syllabic>single</syllabic>
     <text>wan-</text>
    </lyric>
    <lyric number="3">
     <syllabic>single</syllabic>
     <text>gra-</text>
    </lyric>
   </note>
   <note>
    <pitch>
     <step>B</step>
     <octave>4</octave>
    </pitch>
    <duration>2</duration>
    <voice>1</voice>
    <type>eighth</type>
    <stem>down</stem>
    <notations>
     <slur type="stop" number="1"/>
    </notations>
   </note>
  </measure>
  <measure number="7">
   <note>
    <pitch>
     <step>A</step>
     <octave>4</octave>
    </pitch>
    <duration>4</duration>
    <voice>1</voice>
    <type>quarter</type>
    <stem>up</stem>
    <lyric number="1">
     <syllabic>single</syllabic>
     <text>ben,</text>
    </lyric>
    <lyric number="2">
     <syllabic>single</syllabic>
     <text>dern</text>
    </lyric>
    <lyric number="3">
     <syllabic>single</syllabic>
     <text>ben</text>
    </lyric>
   </note>
   <note>
    <rest/>
    <duration>2</duration>
    <voice>1</voice>
    <type>eighth</type>
   </note>
  </measure>
  <measure number="8">
   <note>
    <pitch>
     <step>E</step>
     <octave>4</octave>
    </pitch>
    <duration>2</duration>
    <voice>1</voice>
    <type>eighth</type>
    <stem>up</stem>
    <lyric number="1">
     <syllabic>single</syllabic>
     <text>tief</text>
    </lyric>
    <lyric number="2">
     <syllabic>single</syllabic>
     <text>von</text>
    </lyric>
    <lyric number="3">
     <syllabic>single</syllabic>
     <text>dort</text>
    </lyric>
   </note>
   <note>
    <pitch>
     <step>E</step>
     <octave>4</octave>
    </pitch>
    <duration>2</duration>
    <voice>1</voice>
    <type>eighth</type>
    <stem>up</stem>
    <lyric number="1">
     <syllabic>single</syllabic>
     <text>und</text>
    </lyric>
    <lyric number="2">
     <syllabic>single</syllabic>
     <text>Berg</text>
    </lyric>
    <lyric number="3">
     <syllabic>single</syllabic>
     <text>Iegt</text>
    </lyric>
   </note>
   <note>
    <pitch>
     <step>E</step>
     <octave>4</octave>
    </pitch>
    <duration>2</duration>
    <voice>1</voice>
    <type>eighth</type>
    <stem>up</stem>
    <lyric number="1">
     <syllabic>single</syllabic>
     <text>gar</text>
    </lyric>
    <lyric number="2">
     <syllabic>single</syllabic>
     <text>zu</text>
    </lyric>
    <lyric number="3">
     <syllabic>single</syllabic>
     <text>den</text>
    </lyric>
   </note>
  </measure>
  <measure number="9">
   <note>
    <pitch>
     <step>E</step>
     <octave>4</octave>
    </pitch>
    <duration>4</duration>
    <voice>1</voice>
    <type>quarter</type>
    <stem>up</stem>
    <lyric number="1">
     <syllabic>single</syllabic>
     <text>weit</text>
    </lyric>
    <lyric number="2">
     <syllabic>single</syllabic>
     <text>Berg</text>
    </lyric>
    <lyric number="3">
     <syllabic>single</syllabic>
     <text>Leib</text>
    </lyric>
   </note>
   <note>
    <grace/>
    <pitch>
     <step>G</step>
     <octave>4</octave>
    </pitch>
    <voice>1</voice>
    <type>eighth</type>
    <accidental>natural</accidental>
    <stem>up</stem>
   </note>
   <note>
    <pitch>
     <step>F</step>
     <octave>4</octave>
    </pitch>
    <duration>1</duration>
    <voice>1</voice>
    <type>16th</type>
    <accidental>natural</accidental>
    <stem>up</stem>
    <beam number="1">begin</beam>
    <beam number="2">begin</beam>
    <lyric number="1">
     <syllabic>single</syllabic>
     <text>von</text>
    </lyric>
    <lyric number="2">
     <syllabic>single</syllabic>
     <text>ohn'</text>
    </lyric>
    <lyric number="3">
     <syllabic>single</syllabic>
     <text>hin-</text>
    </lyric>
   </note>
   <note>
    <pitch>
     <step>E</step>
     <octave>4</octave>
    </pitch>
    <duration>1</duration>
    <voice>1</voice>
    <type>16th</type>
    <stem>up</stem>
    <beam number="1">end</beam>
    <beam number="2">end</beam>
   </note>
  </measure>
  <measure number="10">
   <print new-system="yes"/>
   <note>
    <pitch>
     <step>E</step>
     <octave>4</octave>
    </pitch>
    <duration>4</duration>
    <voice>1</voice>
    <type>quarter</type>
    <stem>up</stem>
    <lyric number="1">
     <syllabic>single</syllabic>
     <text>hier,</text>
    </lyric>
    <lyric number="2">
     <syllabic>single</syllabic>
     <text>Ruh?</text>
    </lyric>
    <lyric number="3">
     <syllabic>single</syllabic>
     <text>zu.</text>
    </lyric>
   </note>
   <note>
    <rest/>
    <duration>2</duration>
    <voice>1</voice>
    <type>eighth</type>
   </note>
  </measure>
  <measure number="11">
   <note>
    <rest/>
    <duration>6</duration>
    <voice>1</voice>
    <type>quarter</type>
    <dot/>
   </note>
  </measure>
  <measure number="12">
   <note>
    <pitch>
     <step>B</step>
     <octave>4</octave>
    </pitch>
    <duration>2</duration>
    <voice>1</voice>
    <type>eighth</type>
    <stem>down</stem>
    <lyric number="1">
     <syllabic>single</syllabic>
     <text>und</text>
    </lyric>
    <lyric number="2">
     <syllabic>single</syllabic>
     <text>Was</text>
    </lyric>
    <lyric number="3">
     <syllabic>single</syllabic>
     <text>Dass</text>
    </lyric>
   </note>
   <note>
    <pitch>
     <step>B</step>
     <octave>4</octave>
    </pitch>
    <duration>2</duration>
    <voice>1</voice>
    <type>eighth</type>
    <stem>down</stem>
    <lyric number="1">
     <syllabic>single</syllabic>
     <text>mei-</text>
    </lyric>
    <lyric number="2">
     <syllabic>single</syllabic>
     <text>willst</text>
    </lyric>
    <lyric number="3">
     <syllabic>single</syllabic>
     <text>sic</text>
    </lyric>
   </note>
   <note>
    <pitch>
     <step>B</step>
     <octave>4</octave>
    </pitch>
    <duration>2</duration>
    <voice>1</voice>
    <type>eighth</type>
    <stem>down</stem>
    <lyric number="1">
     <syllabic>single</syllabic>
     <text>ne</text>
    </lyric>
    <lyric number="2">
     <syllabic>single</syllabic>
     <text>Du</text>
    </lyric>
    <lyric number="3">
     <syllabic>single</syllabic>
     <text>sich</text>
    </lyric>
   </note>
  </measure>
  <measure number="13">
   <note>
    <pitch>
     <step>E</step>
     <octave>5</octave>
    </pitch>
    <duration>2</duration>
    <voice>1</voice>
    <type>eighth</type>
    <stem>down</stem>
    <beam number="1">begin</beam>
    <lyric number="1">
     <syllabic>single</syllabic>
     <text>See-</text>
    </lyric>
    <lyric number="2">
     <syllabic>single</syllabic>
     <text>hei</text>
    </lyric>
    <lyric number="3">
     <syllabic>single</syllabic>
     <text>wie-</text>
    </lyric>
   </note>
   <note>
    <pitch>
     <step>D</step>
     <octave>5</octave>
    </pitch>
    <duration>2</duration>
    <voice>1</voice>
    <type>eighth</type>
    <stem>down</stem>
    <beam number="1">end</beam>
   </note>
   <note>
    <pitch>
     <step>C</step>
     <alter>1</alter>
     <octave>5</octave>
    </pitch>
    <duration>2</duration>
    <voice>1</voice>
    <type>eighth</type>
    <stem>down</stem>
    <lyric number="1">
     <syllabic>single</syllabic>
     <text>Ic</text>
    </lyric>
    <lyric number="2">
     <syllabic>single</syllabic>
     <text>den</text>
    </lyric>
    <lyric number="3">
     <syllabic>single</syllabic>
     <text>der-</text>
    </lyric>
   </note>
  </measure>
  <measure number="14">
   <note>
    <pitch>
     <step>B</step>
     <octave>4</octave>
    </pitch>
    <duration>4</duration>
    <voice>1</voice>
    <type>quarter</type>
    <stem>down</stem>
    <notations>
     <slur type="start" number="1"/>
    </notations>
    <lyric number="1">
     <syllabic>single</syllabic>
     <text>Iva-</text>
    </lyric>
    <lyric number="2">
     <syllabic>single</syllabic>
     <text>An-</text>
    </lyric>
    <lyric number="3">
     <syllabic>single</syllabic>
     <text>ha-</text>
    </lyric>
   </note>
   <note>
    <pitch>
     <step>C</step>
     <alter>1</alter>
     <octave>5</octave>
    </pitch>
    <duration>2</duration>
    <voice>1</voice>
    <type>eighth</type>
    <stem>down</stem>
    <notations>
     <slur type="stop" number="1"/>
    </notations>
   </note>
  </measure>
  <measure number="15">
   <print new-system="yes"/>
   <note>
    <pitch>
     <step>D</step>
     <octave>5</octave>
    </pitch>
    <duration>4</duration>
    <voice>1</voice>
    <type>quarter</type>
    <stem>down</stem>
    <lyric number="1">
     <syllabic>single</syllabic>
     <text>ben</text>
    </lyric>
    <lyric number="2">
     <syllabic>single</syllabic>
     <text>dem?</text>
    </lyric>
    <lyric number="3">
     <syllabic>single</syllabic>
     <text>ben</text>
    </lyric>
   </note>
   <note>
    <rest/>
    <duration>2</duration>
    <voice>1</voice>
    <type>eighth</type>
   </note>
  </measure>
  <measure number="16">
   <note>
    <pitch>
     <step>D</step>
     <octave>5</octave>
    </pitch>
    <duration>2</duration>
    <voice>1</voice>
    <type>eighth</type>
    <stem>down</stem>
    <lyric number="1">
     <syllabic>single</syllabic>
     <text>dic</text>
    </lyric>
    <lyric number="2">
     <syllabic>single</syllabic>
     <text>SchlieB'</text>
    </lyric>
    <lyric number="3">
     <syllabic>single</syllabic>
     <text>in</text>
    </lyric>
   </note>
   <note>
    <pitch>
     <step>C</step>
     <alter>1</alter>
     <octave>5</octave>
    </pitch>
    <duration>2</duration>
    <voice>1</voice>
    <type>eighth</type>
    <stem>down</stem>
    <lyric number="1">
     <syllabic>single</syllabic>
     <text>En-</text>
    </lyric>
    <lyric number="2">
     <syllabic>single</syllabic>
     <text>dei-</text>
    </lyric>
    <lyric number="3">
     <syllabic>single</syllabic>
     <text>sse-</text>
    </lyric>
   </note>
   <note>
    <pitch>
     <step>B</step>
     <octave>4</octave>
    </pitch>
    <duration>2</duration>
    <voice>1</voice>
    <type>eighth</type>
    <stem>down</stem>
    <lyric number="1">
     <syllabic>single</syllabic>
     <text>gei</text>
    </lyric>
    <lyric number="2">
     <syllabic>single</syllabic>
     <text>ne</text>
    </lyric>
    <lyric number="3">
     <syllabic>single</syllabic>
     <text>lig</text>
    </lyric>
   </note>
  </measure>
  <measure number="17">
   <note>
    <pitch>
     <step>A</step>
     <octave>4</octave>
    </pitch>
    <duration>4</duration>
    <voice>1</voice>
    <type>quarter</type>
    <stem>up</stem>
    <lyric number="1">
     <syllabic>single</syllabic>
     <text>ii-</text>
    </lyric>
    <lyric number="2">
     <syllabic>single</syllabic>
     <text>Au-</text>
    </lyric>
    <lyric number="3">
     <syllabic>single</syllabic>
     <text>stil-</text>
    </lyric>
   </note>
   <note>
    <pitch>
     <step>B</step>
     <octave>4</octave>
    </pitch>
    <duration>2</duration>
    <voice>1</voice>
    <type>eighth</type>
    <stem>down</stem>
    <lyric number="1">
     <syllabic>single</syllabic>
     <text>ber</text>
    </lyric>
    <lyric number="2">
     <syllabic>single</syllabic>
     <text>gen</text>
    </lyric>
    <lyric number="3">
     <syllabic>single</syllabic>
     <text>ler</text>
    </lyric>
   </note>
  </measure>
  <measure number="18">
   <note>
    <pitch>
     <step>C</step>
     <alter>1</alter>
     <octave>5</octave>
    </pitch>
    <duration>4</duration>
    <voice>1</voice>
    <type>quarter</type>
    <stem>down</stem>
    <lyric number="1">
     <syllabic>single</syllabic>
     <text>mir,</text>
    </lyric>
    <lyric number="2">
     <syllabic>single</syllabic>
     <text>zu,</text>
    </lyric>
    <lyric number="3">
     <syllabic>single</syllabic>
     <text>Ruh,</text>
    </lyric>
   </note>
   <note>
    <rest/>
    <duration>2</duration>
    <voice>1</voice>
    <type>eighth</type>
   </note>
  </measure>
  <measure number="19">
   <print new-system="yes"/>
   <note>
    <pitch>
     <step>A</step>
     <octave>4</octave>
    </pitch>
    <duration>2</duration>
    <voice>1</voice>
    <type>eighth</type>
    <stem>up</stem>
    <lyric number="1">
     <syllabic>single</syllabic>
     <text>dic</text>
    </lyric>
    <lyric number="2">
     <syllabic>single</syllabic>
     <text>schlieB'</text>
    </lyric>
    <lyric number="3">
     <syllabic>single</syllabic>
     <text>im</text>
    </lyric>
   </note>
   <note>
    <pitch>
     <step>A</step>
     <octave>4</octave>
    </pitch>
    <duration>2</duration>
    <voice>1</voice>
    <type>eighth</type>
    <stem>up</stem>
    <lyric number="1">
     <syllabic>single</syllabic>
     <text>En-</text>
    </lyric>
    <lyric number="2">
     <syllabic>single</syllabic>
     <text>dei-</text>
    </lyric>
    <lyric number="3">
     <syllabic>single</syllabic>
     <text>sse-</text>
    </lyric>
   </note>
   <note>
    <pitch>
     <step>A</step>
     <octave>4</octave>
    </pitch>
    <duration>2</duration>
    <voice>1</voice>
    <type>eighth</type>
    <stem>up</stem>
    <lyric number="1">
     <syllabic>single</syllabic>
     <text>gel</text>
    </lyric>
    <lyric number="2">
     <syllabic>single</syllabic>
     <text>ne</text>
    </lyric>
    <lyric number="3">
     <syllabic>single</syllabic>
     <text>lig</text>
    </lyric>
   </note>
  </measure>
  <measure number="20">
   <note>
    <pitch>
     <step>G</step>
     <alter>1</alter>
     <octave>4</octave>
    </pitch>
    <duration>1</duration>
    <voice>1</voice>
    <type>16th</type>
    <stem>down</stem>
    <beam number="1">begin</beam>
    <beam number="2">begin</beam>
    <lyric number="1">
     <syllabic>single</syllabic>
     <text>ii-</text>
    </lyric>
    <lyric number="2">
     <syllabic>single</syllabic>
     <text>Au-</text>
    </lyric>
    <lyric number="3">
     <syllabic>single</syllabic>
     <text>stil-</text>
    </lyric>
   </note>
   <note>
    <pitch>
     <step>A</step>
     <octave>4</octave>
    </pitch>
    <duration>1</duration>
    <voice>1</voice>
    <type>16th</type>
    <stem>down</stem>
    <beam number="1">continue</beam>
    <beam number="2">continue</beam>
    <notations>
     <slur type="start" number="1"/>
    </notations>
   </note>
   <note>
    <pitch>
     <step>B</step>
     <octave>4</octave>
    </pitch>
    <duration>1</duration>
    <voice>1</voice>
    <type>16th</type>
    <stem>down</stem>
    <beam number="1">continue</beam>
    <beam number="2">continue</beam>
   </note>
   <note>
    <pitch>
     <step>C</step>
     <octave>5</octave>
    </pitch>
    <duration>1</duration>
    <voice>1</voice>
    <type>16th</type>
    <accidental>natural</accidental>
    <stem>down</stem>
    <beam number="1">continue</beam>
    <beam number="2">continue</beam>
   </note>
   <note>
    <pitch>
     <step>C</step>
     <alter>1</alter>
     <octave>5</octave>
    </pitch>
    <duration>1</duration>
    <voice>1</voice>
    <type>16th</type>
    <accidental>sharp</accidental>
    <stem>down</stem>
    <beam number="1">continue</beam>
    <beam number="2">continue</beam>
   </note>
   <note>
    <pitch>
     <step>D</step>
     <octave>5</octave>
    </pitch>
    <duration>1</duration>
    <voice>1</voice>
    <type>16th</type>
    <accidental>natural</accidental>
    <stem>down</stem>
    <beam number="1">end</beam>
    <beam number="2">end</beam>
   </note>
  </measure>
  <measure number="21">
   <note>
    <pitch>
     <step>D</step>
     <alter>1</alter>
     <octave>5</octave>
    </pitch>
    <duration>1</duration>
    <voice>1</voice>
    <type>16th</type>
    <accidental>sharp</accidental>
    <stem>down</stem>
    <beam number="1">begin</beam>
    <beam number="2">begin</beam>
   </note>
   <note>
    <pitch>
     <step>E</step>
     <octave>5</octave>
    </pitch>
    <duration>2</duration>
    <voice>1</voice>
    <type>eighth</type>
    <stem>down</stem>
    <beam number="1">continue</beam>
   </note>
   <note>
    <pitch>
     <step>C</step>
     <alter>1</alter>
     <octave>5</octave>
    </pitch>
    <duration>1</duration>
    <voice>1</voice>
    <type>16th</type>
    <stem>down</stem>
    <beam number="1">end</beam>
    <beam number="2">end</beam>
    <notations>
     <slur type="stop" number="1"/>
    </notations>
   </note>
   <note>
    <pitch>
     <step>D</step>
     <octave>5</octave>
    </pitch>
    <duration>1</duration>
    <voice>1</voice>
    <type>16th</type>
    <accidental>natural</accidental>
    <stem>down</stem>
    <beam number="1">begin</beam>
    <beam number="2">begin</beam>
    <lyric number="1">
     <syllabic>single</syllabic>
     <text>ber</text>
    </lyric>
    <lyric number="2">
     <syllabic>single</syllabic>
     <text>gen</text>
    </lyric>
    <lyric number="3">
     <syllabic>single</syllabic>
     <text>ler</text>
    </lyric>
   </note>
   <note>
    <pitch>
     <step>B</step>
     <octave>4</octave>
    </pitch>
    <duration>1</duration>
    <voice>1</voice>
    <type>16th</type>
    <stem>down</stem>
    <beam number="1">end</beam>
    <beam number="2">end</beam>
   </note>
  </measure>
  <measure number="22">
   <note>
    <pitch>
     <step>A</step>
     <octave>4</octave>
    </pitch>
    <duration>4</duration>
    <voice>1</voice>
    <type>quarter</type>
    <stem>up</stem>
    <lyric number="1">
     <syllabic>single</syllabic>
     <text>mir.</text>
    </lyric>
    <lyric number="2">
     <syllabic>single</syllabic>
     <text>zu.</text>
    </lyric>
    <lyric number="3">
     <syllabic>single</syllabic>
     <text>Ruh.</text>
    </lyric>
   </note>
   <note>
    <rest/>
    <duration>2</duration>
    <voice>1</voice>
    <type>eighth</type>
   </note>
  </measure>
  <measure number="23">
   <note>
    <rest/>
    <duration>4</duration>
    <voice>1</voice>
    <type>quarter</type>
   </note>
   <barline location="right">
    <bar-style>light-heavy</bar-style>
   </barline>
  </measure>
 </part>
 <part id="P2">
  <measure number="1">
   <attributes>
    <divisions>4</divisions>
    <key>
     <fifths>3</fifths>
    </key>
    <time>
     <beats>3</beats>
     <beat-type>8</beat-type>
    </time>
    <clef number="1">
     <sign>G</sign>
     <line>2</line>
    </clef>
   </attributes>
   <note>
    <pitch>
     <step>E</step>
     <octave>4</octave>
    </pitch>
    <duration>1</duration>
    <voice>1</voice>
    <type>16th</type>
    <stem>up</stem>
    <beam number="1">begin</beam>
    <beam number="2">begin</beam>
   </note>
   <note>
    <pitch>
     <step>A</step>
     <octave>4</octave>
    </pitch>
    <duration>1</duration>
    <voice>1</voice>
    <type>16th</type>
    <stem>up</stem>
    <beam number="1">end</beam>
    <beam number="2">end</beam>
   </note>
   <note>
    <rest/>
    <duration>2</duration>
    <voice>1</voice>
    <type>eighth</type>
   </note>
   <note>
    <rest/>
    <duration>2</duration>
    <voice>1</voice>
    <type>eighth</type>
   </note>
  </measure>
  <measure number="2">
   <note>
    <pitch>
     <step>D</step>
     <alter>1</alter>
     <octave>4</octave>
    </pitch>
    <duration>1</duration>
    <voice>1</voice>
    <type>16th</type>
    <accidental>sharp</accidental>
    <stem>up</stem>
    <beam number="1">begin</beam>
    <beam number="2">begin</beam>
   </note>
   <note>
    <pitch>
     <step>A</step>
     <octave>4</octave>
    </pitch>
    <duration>1</duration>
    <voice>1</voice>
    <type>16th</type>
    <stem>up</stem>
    <beam number="1">continue</beam>
    <beam number="2">continue</beam>
   </note>
   <note>
    <pitch>
     <step>B</step>
     <alter>1</alter>
     <octave>4</octave>
    </pitch>
    <duration>1</duration>
    <voice>1</voice>
    <type>16th</type>
    <accidental>sharp</accidental>
    <stem>up</stem>
    <beam number="1">continue</beam>
    <beam number="2">continue</beam>
   </note>
   <note>
    <pitch>
     <step>D</step>
     <alter>1</alter>
     <octave>4</octave>
    </pitch>
    <duration>1</duration>
    <voice>1</voice>
    <type>16th</type>
    <stem>up</stem>
    <beam number="1">continue</beam>
    <beam number="2">continue</beam>
   </note>
   <note>
    <pitch>
     <step>E</step>
     <octave>4</octave>
    </pitch>
    <duration>1</duration>
    <voice>1</voice>
    <type>16th</type>
    <stem>up</stem>
    <beam number="1">continue</beam>
    <beam number="2">continue</beam>
   </note>
   <note>
    <pitch>
     <step>A</step>
     <octave>4</octave>
    </pitch>
    <duration>1</duration>
    <voice>1</voice>
    <type>16th</type>
    <stem>up</stem>
    <beam number="1">end</beam>
    <beam number="2">end</beam>
   </note>
  </measure>
  <measure number="3">
   <note>
    <pitch>
     <step>D</step>
     <alter>1</alter>
     <octave>4</octave>
    </pitch>
    <duration>1</duration>
    <voice>1</voice>
    <type>16th</type>
    <accidental>sharp</accidental>
    <stem>up</stem>
    <beam number="1">begin</beam>
    <beam number="2">begin</beam>
   </note>
   <note>
    <pitch>
     <step>A</step>
     <octave>4</octave>
    </pitch>
    <duration>1</duration>
    <voice>1</voice>
    <type>16th</type>
    <stem>up</stem>
    <beam number="1">continue</beam>
    <beam number="2">continue</beam>
   </note>
   <note>
    <pitch>
     <step>B</step>
     <alter>1</alter>
     <octave>4</octave>
    </pitch>
    <duration>1</duration>
    <voice>1</voice>
    <type>16th</type>
    <accidental>sharp</accidental>
    <stem>up</stem>
    <beam number="1">continue</beam>
    <beam number="2">continue</beam>
   </note>
   <note>
    <pitch>
     <step>D</step>
     <alter>1</alter>
     <octave>4</octave>
    </pitch>
    <duration>1</duration>
    <voice>1</voice>
    <type>16th</type>
    <stem>up</stem>
    <beam number="1">continue</beam>
    <beam number="2">continue</beam>
   </note>
   <note>
    <pitch>
     <step>E</step>
     <octave>4</octave>
    </pitch>
    <duration>1</duration>
    <voice>1</voice>
    <type>16th</type>
    <stem>up</stem>
    <beam number="1">continue</beam>
    <beam number="2">continue</beam>
   </note>
   <note>
    <pitch>
     <step>A</step>
     <octave>4</octave>
    </pitch>
    <duration>1</duration>
    <voice>1</voice>
    <type>16th</type>
    <stem>up</stem>
    <beam number="1">end</beam>
    <beam number="2">end</beam>
   </note>
  </measure>
  <measure number="4">
   <note>
    <pitch>
     <step>G</step>
     <octave>4</octave>
    </pitch>
    <duration>1</duration>
    <voice>1</voice>
    <type>16th</type>
    <accidental>natural</accidental>
    <stem>up</stem>
    <beam number="1">begin</beam>
    <beam number="2">begin</beam>
   </note>
   <note>
    <pitch>
     <step>A</step>
     <octave>4</octave>
    </pitch>
    <duration>1</duration>
    <voice>1</voice>
    <type>16th</type>
    <stem>up</stem>
    <beam number="1">continue</beam>
    <beam number="2">continue</beam>
   </note>
   <note>
    <pitch>
     <step>F</step>
     <alter>1</alter>
     <octave>4</octave>
    </pitch>
    <duration>1</duration>
    <voice>1</voice>
    <type>16th</type>
    <stem>up</stem>
    <beam number="1">continue</beam>
    <beam number="2">continue</beam>
   </note>
   <note>
    <pitch>
     <step>A</step>
     <octave>4</octave>
    </pitch>
    <duration>1</duration>
    <voice>1</voice>
    <type>16th</type>
    <stem>up</stem>
    <beam number="1">continue</beam>
    <beam number="2">continue</beam>
   </note>
   <note>
    <pitch>
     <step>F</step>
     <octave>4</octave>
    </pitch>
    <duration>1</duration>
    <voice>1</voice>
    <type>16th</type>
    <accidental>natural</accidental>
    <stem>up</stem>
    <beam number="1">continue</beam>
    <beam number="2">continue</beam>
   </note>
   <note>
    <pitch>
     <step>A</step>
     <octave>4</octave>
    </pitch>
    <duration>1</duration>
    <voice>1</voice>
    <type>16th</type>
    <stem>up</stem>
    <beam number="1">end</beam>
    <beam number="2">end</beam>
   </note>
  </measure>
  <measure number="5">
   <note>
    <pitch>
     <step>E</step>
     <octave>4</octave>
    </pitch>
    <duration>1</duration>
    <voice>1</voice>
    <type>16th</type>
    <stem>up</stem>
    <beam number="1">begin</beam>
    <beam number="2">begin</beam>
   </note>
   <note>
    <pitch>
     <step>A</step>
     <octave>4</octave>
    </pitch>
    <duration>1</duration>
    <voice>1</voice>
    <type>16th</type>
    <stem>up</stem>
    <beam number="1">continue</beam>
    <beam number="2">continue</beam>
   </note>
   <note>
    <pitch>
     <step>C</step>
     <alter>1</alter>
     <octave>5</octave>
    </pitch>
    <duration>1</duration>
    <voice>1</voice>
    <type>16th</type>
    <stem>up</stem>
    <beam number="1">continue</beam>
    <beam number="2">continue</beam>
   </note>
   <note>
    <pitch>
     <step>A</step>
     <octave>4</octave>
    </pitch>
    <duration>1</duration>
    <voice>1</voice>
    <type>16th</type>
    <stem>up</stem>
    <beam number="1">continue</beam>
    <beam number="2">continue</beam>
   </note>
   <note>
    <pitch>
     <step>E</step>
     <octave>4</octave>
    </pitch>
    <duration>1</duration>
    <voice>1</voice>
    <type>16th</type>
    <stem>up</stem>
    <beam number="1">continue</beam>
    <beam number="2">continue</beam>
   </note>
   <note>
    <pitch>
     <step>C</step>
     <alter>1</alter>
     <octave>4</octave>
    </pitch>
    <duration>1</duration>
    <voice>1</voice>
    <type>16th</type>
    <stem>up</stem>
    <beam number="1">end</beam>
    <beam number="2">end</beam>
   </note>
  </measure>
  <measure number="6">
   <print new-system="yes"/>
   <note>
    <pitch>
     <step>D</step>
     <alter>1</alter>
     <octave>4</octave>
    </pitch>
    <duration>1</duration>
    <voice>1</voice>
    <type>16th</type>
    <accidental>sharp</accidental>
    <stem>up</stem>
    <beam number="1">begin</beam>
    <beam number="2">begin</beam>
   </note>
   <note>
    <pitch>
     <step>F</step>
     <alter>1</alter>
     <octave>4</octave>
    </pitch>
    <duration>1</duration>
    <voice>1</voice>
    <type>16th</type>
    <stem>up</stem>
    <beam number="1">continue</beam>
    <beam number="2">continue</beam>
   </note>
   <note>
    <pitch>
     <step>D</step>
     <alter>1</alter>
     <octave>4</octave>
    </pitch>
    <duration>1</duration>
    <voice>1</voice>
    <type>16th</type>
    <stem>up</stem>
    <beam number="1">continue</beam>
    <beam number="2">continue</beam>
   </note>
   <note>
    <pitch>
     <step>F</step>
     <alter>1</alter>
     <octave>4</octave>
    </pitch>
    <duration>1</duration>
    <voice>1</voice>
    <type>16th</type>
    <stem>up</stem>
    <beam number="1">continue</beam>
    <beam number="2">continue</beam>
   </note>
   <note>
    <pitch>
     <step>D</step>
     <octave>4</octave>
    </pitch>
    <duration>1</duration>
    <voice>1</voice>
    <type>16th</type>
    <accidental>natural</accidental>
    <stem>up</stem>
    <beam number="1">continue</beam>
    <beam number="2">continue</beam>
   </note>
   <note>
    <pitch>
     <step>G</step>
     <alter>1</alter>
     <octave>4</octave>
    </pitch>
    <duration>1</duration>
    <voice>1</voice>
    <type>16th</type>
    <stem>up</stem>
    <beam number="1">end</beam>
    <beam number="2">end</beam>
   </note>
  </measure>
  <measure number="7">
   <note>
    <pitch>
     <step>C</step>
     <alter>1</alter>
     <octave>4</octave>
    </pitch>
    <duration>1</duration>
    <voice>1</voice>
    <type>16th</type>
    <stem>up</stem>
    <beam number="1">begin</beam>
    <beam number="2">begin</beam>
   </note>
   <note>
    <pitch>
     <step>E</step>
     <octave>4</octave>
    </pitch>
    <duration>1</duration>
    <voice>1</voice>
    <type>16th</type>
    <stem>up</stem>
    <beam number="1">continue</beam>
    <beam number="2">continue</beam>
   </note>
   <note>
    <pitch>
     <step>A</step>
     <octave>4</octave>
    </pitch>
    <duration>1</duration>
    <voice>1</voice>
    <type>16th</type>
    <stem>up</stem>
    <beam number="1">continue</beam>
    <beam number="2">continue</beam>
   </note>
   <note>
    <pitch>
     <step>E</step>
     <octave>4</octave>
    </pitch>
    <duration>1</duration>
    <voice>1</voice>
    <type>16th</type>
    <stem>up</stem>
    <beam number="1">continue</beam>
    <beam number="2">continue</beam>
   </note>
   <note>
    <pitch>
     <step>C</step>
     <alter>1</alter>
     <octave>4</octave>
    </pitch>
    <duration>1</duration>
    <voice>1</voice>
    <type>16th</type>
    <stem>up</stem>
    <beam number="1">continue</beam>
    <beam number="2">continue</beam>
   </note>
   <note>
    <pitch>
     <step>A</step>
     <octave>3</octave>
    </pitch>
    <duration>1</duration>
    <voice>1</voice>
    <type>16th</type>
    <stem>up</stem>
    <beam number="1">end</beam>
    <beam number="2">end</beam>
   </note>
  </measure>
  <measure number="8">
   <note>
    <pitch>
     <step>C</step>
     <octave>4</octave>
    </pitch>
    <duration>1</duration>
    <voice>1</voice>
    <type>16th</type>
    <accidental>natural</accidental>
    <stem>up</stem>
    <beam number="1">begin</beam>
    <beam number="2">begin</beam>
   </note>
   <note>
    <chord/>
    <pitch>
     <step>E</step>
     <octave>4</octave>
    </pitch>
    <duration>1</duration>
    <voice>1</voice>
    <type>16th</type>
    <stem>up</stem>
    <beam number="1">begin</beam>
    <beam number="2">begin</beam>
   </note>
   <note>
    <pitch>
     <step>A</step>
     <octave>3</octave>
    </pitch>
    <duration>1</duration>
    <voice>1</voice>
    <type>16th</type>
    <stem>up</stem>
    <beam number="1">continue</beam>
    <beam number="2">continue</beam>
   </note>
   <note>
    <pitch>
     <step>C</step>
     <octave>4</octave>
    </pitch>
    <duration>1</duration>
    <voice>1</voice>
    <type>16th</type>
    <stem>up</stem>
    <beam number="1">continue</beam>
    <beam number="2">continue</beam>
   </note>
   <note>
    <chord/>
    <pitch>
     <step>E</step>
     <octave>4</octave>
    </pitch>
    <duration>1</duration>
    <voice>1</voice>
    <type>16th</type>
    <stem>up</stem>
    <beam number="1">continue</beam>
    <beam number="2">continue</beam>
   </note>
   <note>
    <pitch>
     <step>A</step>
     <octave>3</octave>
    </pitch>
    <duration>1</duration>
    <voice>1</voice>
    <type>16th</type>
    <stem>up</stem>
    <beam number="1">continue</beam>
    <beam number="2">continue</beam>
   </note>
   <note>
    <pitch>
     <step>C</step>
     <octave>4</octave>
    </pitch>
    <duration>1</duration>
    <voice>1</voice>
    <type>16th</type>
    <stem>up</stem>
    <beam number="1">continue</beam>
    <beam number="2">continue</beam>
   </note>
   <note>
    <chord/>
    <pitch>
     <step>E</step>
     <octave>4</octave>
    </pitch>
    <duration>1</duration>
    <voice>1</voice>
    <type>16th</type>
    <stem>up</stem>
    <beam number="1">continue</beam>
    <beam number="2">continue</beam>
   </note>
   <note>
    <pitch>
     <step>A</step>
     <octave>3</octave>
    </pitch>
    <duration>1</duration>
    <voice>1</voice>
    <type>16th</type>
    <stem>up</stem>
    <beam number="1">end</beam>
    <beam number="2">end</beam>
   </note>
  </measure>
  <measure number="9">
   <note>
    <pitch>
     <step>D</step>
     <octave>4</octave>
    </pitch>
    <duration>1</duration>
    <voice>1</voice>
    <type>16th</type>
    <stem>up</stem>
    <beam number="1">begin</beam>
    <beam number="2">begin</beam>
   </note>
   <note>
    <chord/>
    <pitch>
     <step>E</step>
     <octave>4</octave>
    </pitch>
    <duration>1</duration>
    <voice>1</voice>
    <type>16th</type>
    <stem>up</stem>
    <beam number="1">begin</beam>
    <beam number="2">begin</beam>
   </note>
   <note>
    <pitch>
     <step>B</step>
     <octave>3</octave>
    </pitch>
    <duration>1</duration>
    <voice>1</voice>
    <type>16th</type>
    <stem>up</stem>
    <beam number="1">continue</beam>
    <beam number="2">continue</beam>
   </note>
   <note>
    <pitch>
     <step>D</step>
     <octave>4</octave>
    </pitch>
    <duration>1</duration>
    <voice>1</voice>
    <type>16th</type>
    <stem>up</stem>
    <beam number="1">continue</beam>
    <beam number="2">continue</beam>
   </note>
   <note>
    <chord/>
    <pitch>
     <step>E</step>
     <octave>4</octave>
    </pitch>
    <duration>1</duration>
    <voice>1</voice>
    <type>16th</type>
    <stem>up</stem>
    <beam number="1">continue</beam>
    <beam number="2">continue</beam>
   </note>
   <note>
    <pitch>
     <step>B</step>
     <octave>3</octave>
    </pitch>
    <duration>1</duration>
    <voice>1</voice>
    <type>16th</type>
    <stem>up</stem>
    <beam number="1">continue</beam>
    <beam number="2">continue</beam>
   </note>
   <note>
    <pitch>
     <step>C</step>
     <octave>4</octave>
    </pitch>
    <duration>1</duration>
    <voice>1</voice>
    <type>16th</type>
    <accidental>natural</accidental>
    <stem>up</stem>
    <beam number="1">continue</beam>
    <beam number="2">continue</beam>
   </note>
   <note>
    <chord/>
    <pitch>
     <step>E</step>
     <octave>4</octave>
    </pitch>
    <duration>1</duration>
    <voice>1</voice>
    <type>16th</type>
    <stem>up</stem>
    <beam number="1">continue</beam>
    <beam number="2">continue</beam>
   </note>
   <note>
    <pitch>
     <step>A</step>
     <octave>3</octave>
    </pitch>
    <duration>1</duration>
    <voice>1</voice>
    <type>16th</type>
    <stem>up</stem>
    <beam number="1">end</beam>
    <beam number="2">end</beam>
   </note>
  </measure>
  <measure number="10">
   <print new-system="yes"/>
   <note>
    <rest/>
    <duration>2</duration>
    <voice>1</voice>
    <type>eighth</type>
   </note>
   <note>
    <pitch>
     <step>E</step>
     <octave>5</octave>
    </pitch>
    <duration>1</duration>
    <voice>1</voice>
    <type>16th</type>
    <stem>up</stem>
    <beam number="1">begin</beam>
    <beam number="2">begin</beam>
   </note>
   <note>
    <pitch>
     <step>G</step>
     <alter>1</alter>
     <octave>5</octave>
    </pitch>
    <duration>1</duration>
    <voice>1</voice>
    <type>16th</type>
    <stem>up</stem>
    <beam number="1">continue</beam>
    <beam number="2">continue</beam>
   </note>
   <note>
    <pitch>
     <step>E</step>
     <octave>4</octave>
    </pitch>
    <duration>1</duration>
    <voice>1</voice>
    <type>16th</type>
    <stem>up</stem>
    <beam number="1">continue</beam>
    <beam number="2">continue</beam>
   </note>
   <note>
    <pitch>
     <step>G</step>
     <alter>1</alter>
     <octave>5</octave>
    </pitch>
    <duration>1</duration>
    <voice>1</voice>
    <type>16th</type>
    <stem>up</stem>
    <beam number="1">end</beam>
    <beam number="2">end</beam>
   </note>
  </measure>
  <measure number="11">
   <note>
    <pitch>
     <step>E</step>
     <octave>5</octave>
    </pitch>
    <duration>1</duration>
    <voice>1</voice>
    <type>16th</type>
    <stem>up</stem>
    <beam number="1">begin</beam>
    <beam number="2">begin</beam>
   </note>
   <note>
    <pitch>
     <step>G</step>
     <alter>1</alter>
     <octave>5</octave>
    </pitch>
    <duration>1</duration>
    <voice>1</voice>
    <type>16th</type>
    <stem>up</stem>
    <beam number="1">continue</beam>
    <beam number="2">continue</beam>
   </note>
   <note>
    <pitch>
     <step>E</step>
     <octave>4</octave>
    </pitch>
    <duration>1</duration>
    <voice>1</voice>
    <type>16th</type>
    <stem>down</stem>
    <beam number="1">continue</beam>
    <beam number="2">continue</beam>
   </note>
   <note>
    <pitch>
     <step>G</step>
     <alter>1</alter>
     <octave>4</octave>
    </pitch>
    <duration>1</duration>
    <voice>1</voice>
    <type>16th</type>
    <stem>down</stem>
    <beam number="1">continue</beam>
    <beam number="2">continue</beam>
   </note>
   <note>
    <pitch>
     <step>B</step>
     <octave>4</octave>
    </pitch>
    <duration>1</duration>
    <voice>1</voice>
    <type>16th</type>
    <stem>down</stem>
    <beam number="1">continue</beam>
    <beam number="2">continue</beam>
   </note>
   <note>
    <pitch>
     <step>G</step>
     <alter>1</alter>
     <octave>4</octave>
    </pitch>
    <duration>1</duration>
    <voice>1</voice>
    <type>16th</type>
    <stem>down</stem>
    <beam number="1">end</beam>
    <beam number="2">end</beam>
   </note>
  </measure>
  <measure number="12">
   <note>
    <pitch>
     <step>G</step>
     <alter>1</alter>
     <octave>3</octave>
    </pitch>
    <duration>1</duration>
    <voice>1</voice>
    <type>16th</type>
    <stem>up</stem>
    <beam number="1">begin</beam>
    <beam number="2">begin</beam>
   </note>
   <note>
    <chord/>
    <pitch>
     <step>E</step>
     <octave>4</octave>
    </pitch>
    <duration>1</duration>
    <voice>1</voice>
    <type>16th</type>
    <stem>up</stem>
    <beam number="1">begin</beam>
    <beam number="2">begin</beam>
   </note>
   <note>
    <pitch>
     <step>B</step>
     <octave>3</octave>
    </pitch>
    <duration>1</duration>
    <voice>1</voice>
    <type>16th</type>
    <stem>up</stem>
    <beam number="1">continue</beam>
    <beam number="2">continue</beam>
   </note>
   <note>
    <pitch>
     <step>G</step>
     <alter>1</alter>
     <octave>3</octave>
    </pitch>
    <duration>1</duration>
    <voice>1</voice>
    <type>16th</type>
    <stem>up</stem>
    <beam number="1">continue</beam>
    <beam number="2">continue</beam>
   </note>
   <note>
    <chord/>
    <pitch>
     <step>E</step>
     <octave>4</octave>
    </pitch>
    <duration>1</duration>
    <voice>1</voice>
    <type>16th</type>
    <stem>up</stem>
    <beam number="1">continue</beam>
    <beam number="2">continue</beam>
   </note>
   <note>
    <pitch>
     <step>B</step>
     <octave>3</octave>
    </pitch>
    <duration>1</duration>
    <voice>1</voice>
    <type>16th</type>
    <stem>up</stem>
    <beam number="1">continue</beam>
    <beam number="2">continue</beam>
   </note>
   <note>
    <pitch>
     <step>G</step>
     <alter>1</alter>
     <octave>3</octave>
    </pitch>
    <duration>1</duration>
    <voice>1</voice>
    <type>16th</type>
    <stem>up</stem>
    <beam number="1">continue</beam>
    <beam number="2">continue</beam>
   </note>
   <note>
    <chord/>
    <pitch>
     <step>E</step>
     <octave>4</octave>
    </pitch>
    <duration>1</duration>
    <voice>1</voice>
    <type>16th</type>
    <stem>up</stem>
    <beam number="1">continue</beam>
    <beam number="2">continue</beam>
   </note>
   <note>
    <pitch>
     <step>B</step>
     <octave>3</octave>
    </pitch>
    <duration>1</duration>
    <voice>1</voice>
    <type>16th</type>
    <stem>up</stem>
    <beam number="1">end</beam>
    <beam number="2">end</beam>
   </note>
  </measure>
  <measure number="13">
   <note>
    <pitch>
     <step>G</step>
     <octave>3</octave>
    </pitch>
    <duration>1</duration>
    <voice>1</voice>
    <type>16th</type>
    <accidental>natural</accidental>
    <stem>up</stem>
    <beam number="1">begin</beam>
    <beam number="2">begin</beam>
   </note>
   <note>
    <pitch>
     <step>C</step>
     <alter>1</alter>
     <octave>4</octave>
    </pitch>
    <duration>1</duration>
    <voice>1</voice>
    <type>16th</type>
    <stem>up</stem>
    <beam number="1">continue</beam>
    <beam number="2">continue</beam>
   </note>
   <note>
    <pitch>
     <step>E</step>
     <octave>4</octave>
    </pitch>
    <duration>1</duration>
    <voice>1</voice>
    <type>16th</type>
    <stem>up</stem>
    <beam number="1">continue</beam>
    <beam number="2">continue</beam>
   </note>
   <note>
    <pitch>
     <step>G</step>
     <octave>4</octave>
    </pitch>
    <duration>1</duration>
    <voice>1</voice>
    <type>16th</type>
    <accidental>natural</accidental>
    <stem>up</stem>
    <beam number="1">continue</beam>
    <beam number="2">continue</beam>
   </note>
   <note>
    <pitch>
     <step>E</step>
     <octave>4</octave>
    </pitch>
    <duration>1</duration>
    <voice>1</voice>
    <type>16th</type>
    <stem>up</stem>
    <beam number="1">continue</beam>
    <beam number="2">continue</beam>
   </note>
   <note>
    <pitch>
     <step>C</step>
     <alter>1</alter>
     <octave>4</octave>
    </pitch>
    <duration>1</duration>
    <voice>1</voice>
    <type>16th</type>
    <stem>up</stem>
    <beam number="1">end</beam>
    <beam number="2">end</beam>
   </note>
  </measure>
  <measure number="14">
   <note>
    <pitch>
     <step>D</step>
     <octave>4</octave>
    </pitch>
    <duration>1</duration>
    <voice>1</voice>
    <type>16th</type>
    <stem>up</stem>
    <beam number="1">begin</beam>
    <beam number="2">begin</beam>
   </note>
   <note>
    <chord/>
    <pitch>
     <step>B</step>
     <octave>4</octave>
    </pitch>
    <duration>1</duration>
    <voice>1</voice>
    <type>16th</type>
    <stem>up</stem>
    <beam number="1">begin</beam>
    <beam number="2">begin</beam>
   </note>
   <note>
    <pitch>
     <step>F</step>
     <alter>1</alter>
     <octave>4</octave>
    </pitch>
    <duration>1</duration>
    <voice>1</voice>
    <type>16th</type>
    <stem>up</stem>
    <beam number="1">continue</beam>
    <beam number="2">continue</beam>
   </note>
   <note>
    <pitch>
     <step>D</step>
     <octave>4</octave>
    </pitch>
    <duration>1</duration>
    <voice>1</voice>
    <type>16th</type>
    <stem>up</stem>
    <beam number="1">continue</beam>
    <beam number="2">continue</beam>
   </note>
   <note>
    <chord/>
    <pitch>
     <step>B</step>
     <octave>4</octave>
    </pitch>
    <duration>1</duration>
    <voice>1</voice>
    <type>16th</type>
    <stem>up</stem>
    <beam number="1">continue</beam>
    <beam number="2">continue</beam>
   </note>
   <note>
    <pitch>
     <step>F</step>
     <alter>1</alter>
     <octave>4</octave>
    </pitch>
    <duration>1</duration>
    <voice>1</voice>
    <type>16th</type>
    <stem>up</stem>
    <beam number="1">continue</beam>
    <beam number="2">continue</beam>
   </note>
   <note>
    <pitch>
     <step>E</step>
     <octave>4</octave>
    </pitch>
    <duration>1</duration>
    <voice>1</voice>
    <type>16th</type>
    <stem>up</stem>
    <beam number="1">continue</beam>
    <beam number="2">continue</beam>
   </note>
   <note>
    <chord/>
    <pitch>
     <step>A</step>
     <alter>1</alter>
     <octave>4</octave>
    </pitch>
    <duration>1</duration>
    <voice>1</voice>
    <type>16th</type>
    <accidental>sharp</accidental>
    <stem>up</stem>
    <beam number="1">continue</beam>
    <beam number="2">continue</beam>
   </note>
   <note>
    <pitch>
     <step>F</step>
     <alter>1</alter>
     <octave>4</octave>
    </pitch>
    <duration>1</duration>
    <voice>1</voice>
    <type>16th</type>
    <stem>up</stem>
    <beam number="1">end</beam>
    <beam number="2">end</beam>
   </note>
  </measure>
  <measure number="15">
   <print new-system="yes"/>
   <note>
    <pitch>
     <step>D</step>
     <octave>4</octave>
    </pitch>
    <duration>1</duration>
    <voice>1</voice>
    <type>16th</type>
    <stem>up</stem>
    <beam number="1">begin</beam>
    <beam number="2">begin</beam>
   </note>
   <note>
    <chord/>
    <pitch>
     <step>B</step>
     <octave>4</octave>
    </pitch>
    <duration>1</duration>
    <voice>1</voice>
    <type>16th</type>
    <stem>up</stem>
    <beam number="1">begin</beam>
    <beam number="2">begin</beam>
   </note>
   <note>
    <pitch>
     <step>F</step>
     <alter>1</alter>
     <octave>4</octave>
    </pitch>
    <duration>1</duration>
    <voice>1</voice>
    <type>16th</type>
    <stem>up</stem>
    <beam number="1">continue</beam>
    <beam number="2">continue</beam>
   </note>
   <note>
    <pitch>
     <step>D</step>
     <octave>4</octave>
    </pitch>
    <duration>1</duration>
    <voice>1</voice>
    <type>16th</type>
    <stem>up</stem>
    <beam number="1">continue</beam>
    <beam number="2">continue</beam>
   </note>
   <note>
    <pitch>
     <step>B</step>
     <octave>3</octave>
    </pitch>
    <duration>1</duration>
    <voice>1</voice>
    <type>16th</type>
    <stem>up</stem>
    <beam number="1">continue</beam>
    <beam number="2">continue</beam>
   </note>
   <note>
    <pitch>
     <step>D</step>
     <octave>4</octave>
    </pitch>
    <duration>1</duration>
    <voice>1</voice>
    <type>16th</type>
    <stem>up</stem>
    <beam number="1">continue</beam>
    <beam number="2">continue</beam>
   </note>
   <note>
    <pitch>
     <step>F</step>
     <alter>1</alter>
     <octave>4</octave>
    </pitch>
    <duration>1</duration>
    <voice>1</voice>
    <type>16th</type>
    <stem>up</stem>
    <beam number="1">end</beam>
    <beam number="2">end</beam>
   </note>
  </measure>
  <measure number="16">
   <note>
    <pitch>
     <step>D</step>
     <octave>4</octave>
    </pitch>
    <duration>1</duration>
    <voice>1</voice>
    <type>16th</type>
    <stem>up</stem>
    <beam number="1">begin</beam>
    <beam number="2">begin</beam>
   </note>
   <note>
    <pitch>
     <step>F</step>
     <alter>1</alter>
     <octave>4</octave>
    </pitch>
    <duration>1</duration>
    <voice>1</voice>
    <type>16th</type>
    <stem>up</stem>
    <beam number="1">continue</beam>
    <beam number="2">continue</beam>
   </note>
   <note>
    <pitch>
     <step>D</step>
     <octave>4</octave>
    </pitch>
    <duration>1</duration>
    <voice>1</voice>
    <type>16th</type>
    <stem>up</stem>
    <beam number="1">continue</beam>
    <beam number="2">continue</beam>
   </note>
   <note>
    <pitch>
     <step>F</step>
     <alter>1</alter>
     <octave>4</octave>
    </pitch>
    <duration>1</duration>
    <voice>1</voice>
    <type>16th</type>
    <stem>up</stem>
    <beam number="1">continue</beam>
    <beam number="2">continue</beam>
   </note>
   <note>
    <pitch>
     <step>D</step>
     <octave>4</octave>
    </pitch>
    <duration>1</duration>
    <voice>1</voice>
    <type>16th</type>
    <stem>up</stem>
    <beam number="1">continue</beam>
    <beam number="2">continue</beam>
   </note>
   <note>
    <pitch>
     <step>F</step>
     <octave>4</octave>
    </pitch>
    <duration>1</duration>
    <voice>1</voice>
    <type>16th</type>
    <accidental>natural</accidental>
    <stem>up</stem>
    <beam number="1">end</beam>
    <beam number="2">end</beam>
   </note>
  </measure>
  <measure number="17">
   <note>
    <pitch>
     <step>C</step>
     <alter>1</alter>
     <octave>4</octave>
    </pitch>
    <duration>1</duration>
    <voice>1</voice>
    <type>16th</type>
    <stem>up</stem>
    <beam number="1">begin</beam>
    <beam number="2">begin</beam>
   </note>
   <note>
    <chord/>
    <pitch>
     <step>A</step>
     <octave>4</octave>
    </pitch>
    <duration>1</duration>
    <voice>1</voice>
    <type>16th</type>
    <stem>up</stem>
    <beam number="1">begin</beam>
    <beam number="2">begin</beam>
   </note>
   <note>
    <pitch>
     <step>E</step>
     <octave>4</octave>
    </pitch>
    <duration>1</duration>
    <voice>1</voice>
    <type>16th</type>
    <stem>up</stem>
    <beam number="1">continue</beam>
    <beam number="2">continue</beam>
   </note>
   <note>
    <pitch>
     <step>C</step>
     <alter>1</alter>
     <octave>4</octave>
    </pitch>
    <duration>1</duration>
    <voice>1</voice>
    <type>16th</type>
    <stem>up</stem>
    <beam number="1">continue</beam>
    <beam number="2">continue</beam>
   </note>
   <note>
    <pitch>
     <step>E</step>
     <octave>4</octave>
    </pitch>
    <duration>1</duration>
    <voice>1</voice>
    <type>16th</type>
    <stem>up</stem>
    <beam number="1">continue</beam>
    <beam number="2">continue</beam>
   </note>
   <note>
    <pitch>
     <step>D</step>
     <octave>4</octave>
    </pitch>
    <duration>1</duration>
    <voice>1</voice>
    <type>16th</type>
    <stem>up</stem>
    <beam number="1">continue</beam>
    <beam number="2">continue</beam>
   </note>
   <note>
    <chord/>
    <pitch>
     <step>G</step>
     <alter>1</alter>
     <octave>4</octave>
    </pitch>
    <duration>1</duration>
    <voice>1</voice>
    <type>16th</type>
    <stem>up</stem>
    <beam number="1">continue</beam>
    <beam number="2">continue</beam>
   </note>
   <note>
    <pitch>
     <step>E</step>
     <octave>4</octave>
    </pitch>
    <duration>1</duration>
    <voice>1</voice>
    <type>16th</type>
    <stem>up</stem>
    <beam number="1">end</beam>
    <beam number="2">end</beam>
   </note>
  </measure>
  <measure number="18">
   <note>
    <pitch>
     <step>C</step>
     <alter>1</alter>
     <octave>4</octave>
    </pitch>
    <duration>1</duration>
    <voice>1</voice>
    <type>16th</type>
    <stem>up</stem>
    <beam number="1">begin</beam>
    <beam number="2">begin</beam>
   </note>
   <note>
    <chord/>
    <pitch>
     <step>A</step>
     <octave>4</octave>
    </pitch>
    <duration>1</duration>
    <voice>1</voice>
    <type>16th</type>
    <stem>up</stem>
    <beam number="1">begin</beam>
    <beam number="2">begin</beam>
   </note>
   <note>
    <pitch>
     <step>E</step>
     <octave>4</octave>
    </pitch>
    <duration>1</duration>
    <voice>1</voice>
    <type>16th</type>
    <stem>up</stem>
    <beam number="1">continue</beam>
    <beam number="2">continue</beam>
   </note>
   <note>
    <pitch>
     <step>C</step>
     <alter>1</alter>
     <octave>4</octave>
    </pitch>
    <duration>1</duration>
    <voice>1</voice>
    <type>16th</type>
    <stem>up</stem>
    <beam number="1">continue</beam>
    <beam number="2">continue</beam>
   </note>
   <note>
    <chord/>
    <pitch>
     <step>A</step>
     <octave>4</octave>
    </pitch>
    <duration>1</duration>
    <voice>1</voice>
    <type>16th</type>
    <stem>up</stem>
    <beam number="1">continue</beam>
    <beam number="2">continue</beam>
   </note>
   <note>
    <pitch>
     <step>E</step>
     <octave>4</octave>
    </pitch>
    <duration>1</duration>
    <voice>1</voice>
    <type>16th</type>
    <stem>up</stem>
    <beam number="1">continue</beam>
    <beam number="2">continue</beam>
   </note>
   <note>
    <pitch>
     <step>C</step>
     <alter>1</alter>
     <octave>4</octave>
    </pitch>
    <duration>1</duration>
    <voice>1</voice>
    <type>16th</type>
    <stem>up</stem>
    <beam number="1">continue</beam>
    <beam number="2">continue</beam>
   </note>
   <note>
    <chord/>
    <pitch>
     <step>A</step>
     <octave>4</octave>
    </pitch>
    <duration>1</duration>
    <voice>1</voice>
    <type>16th</type>
    <stem>up</stem>
    <beam number="1">continue</beam>
    <beam number="2">continue</beam>
   </note>
   <note>
    <pitch>
     <step>E</step>
     <octave>4</octave>
    </pitch>
    <duration>1</duration>
    <voice>1</voice>
    <type>16th</type>
    <stem>up</stem>
    <beam number="1">end</beam>
    <beam number="2">end</beam>
   </note>
  </measure>
  <measure number="19">
   <print new-system="yes"/>
   <note>
    <pitch>
     <step>C</step>
     <alter>1</alter>
     <octave>4</octave>
    </pitch>
    <duration>1</duration>
    <voice>1</voice>
    <type>16th</type>
    <stem>up</stem>
    <beam number="1">begin</beam>
    <beam number="2">begin</beam>
   </note>
   <note>
    <chord/>
    <pitch>
     <step>A</step>
     <octave>4</octave>
    </pitch>
    <duration>1</duration>
    <voice>1</voice>
    <type>16th</type>
    <stem>up</stem>
    <beam number="1">begin</beam>
    <beam number="2">begin</beam>
   </note>
   <note>
    <pitch>
     <step>E</step>
     <octave>4</octave>
    </pitch>
    <duration>1</duration>
    <voice>1</voice>
    <type>16th</type>
    <stem>up</stem>
    <beam number="1">continue</beam>
    <beam number="2">continue</beam>
   </note>
   <note>
    <pitch>
     <step>D</step>
     <octave>4</octave>
    </pitch>
    <duration>1</duration>
    <voice>1</voice>
    <type>16th</type>
    <stem>up</stem>
    <beam number="1">continue</beam>
    <beam number="2">continue</beam>
   </note>
   <note>
    <chord/>
    <pitch>
     <step>A</step>
     <octave>4</octave>
    </pitch>
    <duration>1</duration>
    <voice>1</voice>
    <type>16th</type>
    <stem>up</stem>
    <beam number="1">continue</beam>
    <beam number="2">continue</beam>
   </note>
   <note>
    <pitch>
     <step>G</step>
     <alter>1</alter>
     <octave>4</octave>
    </pitch>
    <duration>1</duration>
    <voice>1</voice>
    <type>16th</type>
    <accidental>sharp</accidental>
    <stem>up</stem>
    <beam number="1">continue</beam>
    <beam number="2">continue</beam>
   </note>
   <note>
    <pitch>
     <step>E</step>
     <octave>4</octave>
    </pitch>
    <duration>1</duration>
    <voice>1</voice>
    <type>16th</type>
    <stem>up</stem>
    <beam number="1">continue</beam>
    <beam number="2">continue</beam>
   </note>
   <note>
    <chord/>
    <pitch>
     <step>A</step>
     <octave>4</octave>
    </pitch>
    <duration>1</duration>
    <voice>1</voice>
    <type>16th</type>
    <stem>up</stem>
    <beam number="1">continue</beam>
    <beam number="2">continue</beam>
   </note>
   <note>
    <pitch>
     <step>G</step>
     <octave>4</octave>
    </pitch>
    <duration>1</duration>
    <voice>1</voice>
    <type>16th</type>
    <accidental>natural</accidental>
    <stem>up</stem>
    <beam number="1">end</beam>
    <beam number="2">end</beam>
   </note>
  </measure>
  <measure number="20">
   <note>
    <pitch>
     <step>D</step>
     <octave>4</octave>
    </pitch>
    <duration>6</duration>
    <voice>1</voice>
    <type>quarter</type>
    <dot/>
    <stem>up</stem>
   </note>
   <note>
    <chord/>
    <pitch>
     <step>F</step>
     <alter>1</alter>
     <octave>4</octave>
    </pitch>
    <duration>6</duration>
    <voice>1</voice>
    <type>quarter</type>
    <dot/>
    <stem>up</stem>
   </note>
  </measure>
  <measure number="21">
   <note>
    <pitch>
     <step>D</step>
     <octave>4</octave>
    </pitch>
    <duration>1</duration>
    <voice>1</voice>
    <type>16th</type>
    <stem>up</stem>
    <beam number="1">begin</beam>
    <beam number="2">begin</beam>
   </note>
   <note>
    <chord/>
    <pitch>
     <step>G</step>
     <alter>1</alter>
     <octave>4</octave>
    </pitch>
    <duration>1</duration>
    <voice>1</voice>
    <type>16th</type>
    <stem>up</stem>
    <beam number="1">begin</beam>
    <beam number="2">begin</beam>
   </note>
   <note>
    <pitch>
     <step>E</step>
     <octave>4</octave>
    </pitch>
    <duration>1</duration>
    <voice>1</voice>
    <type>16th</type>
    <stem>up</stem>
    <beam number="1">continue</beam>
    <beam number="2">continue</beam>
   </note>
   <note>
    <pitch>
     <step>G</step>
     <alter>1</alter>
     <octave>4</octave>
    </pitch>
    <duration>1</duration>
    <voice>1</voice>
    <type>16th</type>
    <stem>up</stem>
    <beam number="1">continue</beam>
    <beam number="2">continue</beam>
   </note>
   <note>
    <pitch>
     <step>E</step>
     <octave>4</octave>
    </pitch>
    <duration>1</duration>
    <voice>1</voice>
    <type>16th</type>
    <stem>up</stem>
    <beam number="1">continue</beam>
    <beam number="2">continue</beam>
   </note>
   <note>
    <pitch>
     <step>D</step>
     <octave>4</octave>
    </pitch>
    <duration>1</duration>
    <voice>1</voice>
    <type>16th</type>
    <stem>up</stem>
    <beam number="1">continue</beam>
    <beam number="2">continue</beam>
   </note>
   <note>
    <chord/>
    <pitch>
     <step>G</step>
     <alter>1</alter>
     <octave>4</octave>
    </pitch>
    <duration>1</duration>
    <voice>1</voice>
    <type>16th</type>
    <stem>up</stem>
    <beam number="1">continue</beam>
    <beam number="2">continue</beam>
   </note>
   <note>
    <pitch>
     <step>E</step>
     <octave>4</octave>
    </pitch>
    <duration>1</duration>
    <voice>1</voice>
    <type>16th</type>
    <stem>up</stem>
    <beam number="1">end</beam>
    <beam number="2">end</beam>
   </note>
  </measure>
  <measure number="22">
   <note>
    <pitch>
     <step>C</step>
     <alter>1</alter>
     <octave>4</octave>
    </pitch>
    <duration>1</duration>
    <voice>1</voice>
    <type>16th</type>
    <stem>up</stem>
    <beam number="1">begin</beam>
    <beam number="2">begin</beam>
   </note>
   <note>
    <chord/>
    <pitch>
     <step>A</step>
     <octave>4</octave>
    </pitch>
    <duration>1</duration>
    <voice>1</voice>
    <type>16th</type>
    <stem>up</stem>
    <beam number="1">begin</beam>
    <beam number="2">begin</beam>
   </note>
   <note>
    <pitch>
     <step>E</step>
     <octave>4</octave>
    </pitch>
    <duration>1</duration>
    <voice>1</voice>
    <type>16th</type>
    <stem>up</stem>
    <beam number="1">continue</beam>
    <beam number="2">continue</beam>
   </note>
   <note>
    <pitch>
     <step>A</step>
     <octave>4</octave>
    </pitch>
    <duration>1</duration>
    <voice>1</voice>
    <type>16th</type>
    <stem>up</stem>
    <beam number="1">continue</beam>
    <beam number="2">continue</beam>
   </note>
   <note>
    <pitch>
     <step>C</step>
     <alter>1</alter>
     <octave>5</octave>
    </pitch>
    <duration>1</duration>
    <voice>1</voice>
    <type>16th</type>
    <stem>up</stem>
    <beam number="1">continue</beam>
    <beam number="2">continue</beam>
   </note>
   <note>
    <pitch>
     <step>E</step>
     <octave>5</octave>
    </pitch>
    <duration>1</duration>
    <voice>1</voice>
    <type>16th</type>
    <stem>up</stem>
    <beam number="1">continue</beam>
    <beam number="2">continue</beam>
   </note>
   <note>
    <pitch>
     <step>C</step>
     <alter>1</alter>
     <octave>5</octave>
    </pitch>
    <duration>1</duration>
    <voice>1</voice>
    <type>16th</type>
    <stem>up</stem>
    <beam number="1">end</beam>
    <beam number="2">end</beam>
   </note>
  </measure>
  <measure number="23">
   <note>
    <pitch>
     <step>A</step>
     <octave>4</octave>
    </pitch>
    <duration>4</duration>
    <voice>1</voice>
    <type>quarter</type>
    <stem>up</stem>
   </note>
   <barline location="right">
    <bar-style>light-heavy</bar-style>
   </barline>
  </measure>
 </part>
 <part id="P3">
  <measure number="1">
   <attributes>
    <divisions>4</divisions>
    <key>
     <fifths>3</fifths>
    </key>
    <time>
     <beats>3</beats>
     <beat-type>8</beat-type>
    </time>
    <clef number="1">
     <sign>F</sign>
     <line>4</line>
    </clef>
   </attributes>
   <note>
    <rest/>
    <duration>2</duration>
    <voice>1</voice>
    <type>eighth</type>
   </note>
   <note>
    <rest/>
    <duration>2</duration>
    <voice>1</voice>
    <type>eighth</type>
   </note>
   <note>
    <rest/>
    <duration>2</duration>
    <voice>1</voice>
    <type>eighth</type>
   </note>
  </measure>
  <measure number="2">
   <note>
    <pitch>
     <step>A</step>
     <octave>2</octave>
    </pitch>
    <duration>6</duration>
    <tie type="start"/>
    <voice>1</voice>
    <type>quarter</type>
    <dot/>
    <stem>down</stem>
    <notations>
     <tied type="start"/>
    </notations>
   </note>
   <note>
    <chord/>
    <pitch>
     <step>A</step>
     <octave>3</octave>
    </pitch>
    <duration>6</duration>
    <tie type="start"/>
    <voice>1</voice>
    <type>quarter</type>
    <dot/>
    <stem>down</stem>
    <notations>
     <tied type="start"/>
    </notations>
   </note>
  </measure>
  <measure number="3">
   <note>
    <pitch>
     <step>A</step>
     <octave>2</octave>
    </pitch>
    <duration>6</duration>
    <tie type="stop"/>
    <voice>1</voice>
    <type>quarter</type>
    <dot/>
    <stem>down</stem>
    <notations>
     <tied type="stop"/>
    </notations>
   </note>
   <note>
    <chord/>
    <pitch>
     <step>A</step>
     <octave>3</octave>
    </pitch>
    <duration>6</duration>
    <tie type="stop"/>
    <voice>1</voice>
    <type>quarter</type>
    <dot/>
    <stem>down</stem>
    <notations>
     <tied type="stop"/>
    </notations>
   </note>
  </measure>
  <measure number="4">
   <note>
    <pitch>
     <step>A</step>
     <octave>2</octave>
    </pitch>
    <duration>6</duration>
    <tie type="start"/>
    <voice>1</voice>
    <type>quarter</type>
    <dot/>
    <stem>down</stem>
    <notations>
     <tied type="start"/>
    </notations>
   </note>
   <note>
    <chord/>
    <pitch>
     <step>A</step>
     <octave>3</octave>
    </pitch>
    <duration>6</duration>
    <tie type="start"/>
    <voice>1</voice>
    <type>quarter</type>
    <dot/>
    <stem>down</stem>
    <notations>
     <tied type="start"/>
    </notations>
   </note>
  </measure>
  <measure number="5">
   <note>
    <pitch>
     <step>A</step>
     <octave>2</octave>
    </pitch>
    <duration>6</duration>
    <tie type="stop"/>
    <voice>1</voice>
    <type>quarter</type>
    <dot/>
    <stem>down</stem>
    <notations>
     <tied type="stop"/>
    </notations>
   </note>
   <note>
    <chord/>
    <pitch>
     <step>A</step>
     <octave>3</octave>
    </pitch>
    <duration>6</duration>
    <tie type="stop"/>
    <voice>1</voice>
    <type>quarter</type>
    <dot/>
    <stem>down</stem>
    <notations>
     <tied type="stop"/>
    </notations>
   </note>
  </measure>
  <measure number="6">
   <print new-system="yes"/>
   <note>
    <pitch>
     <step>A</step>
     <octave>2</octave>
    </pitch>
    <duration>6</duration>
    <tie type="start"/>
    <voice>1</voice>
    <type>quarter</type>
    <dot/>
    <stem>down</stem>
    <notations>
     <tied type="start"/>
    </notations>
   </note>
   <note>
    <chord/>
    <pitch>
     <step>A</step>
     <octave>3</octave>
    </pitch>
    <duration>6</duration>
    <tie type="start"/>
    <voice>1</voice>
    <type>quarter</type>
    <dot/>
    <stem>down</stem>
    <notations>
     <tied type="start"/>
    </notations>
   </note>
  </measure>
  <measure number="7">
   <note>
    <pitch>
     <step>A</step>
     <octave>2</octave>
    </pitch>
    <duration>6</duration>
    <tie type="stop"/>
    <voice>1</voice>
    <type>quarter</type>
    <dot/>
    <stem>down</stem>
    <notations>
     <tied type="stop"/>
    </notations>
   </note>
   <note>
    <chord/>
    <pitch>
     <step>A</step>
     <octave>3</octave>
    </pitch>
    <duration>6</duration>
    <tie type="stop"/>
    <voice>1</voice>
    <type>quarter</type>
    <dot/>
    <stem>down</stem>
    <notations>
     <tied type="stop"/>
    </notations>
   </note>
  </measure>
  <measure number="8">
   <note>
    <pitch>
     <step>A</step>
     <octave>2</octave>
    </pitch>
    <duration>2</duration>
    <voice>1</voice>
    <type>eighth</type>
    <stem>up</stem>
    <beam number="1">begin</beam>
   </note>
   <note>
    <pitch>
     <step>A</step>
     <octave>2</octave>
    </pitch>
    <duration>2</duration>
    <voice>1</voice>
    <type>eighth</type>
    <stem>up</stem>
    <beam number="1">continue</beam>
   </note>
   <note>
    <pitch>
     <step>A</step>
     <octave>2</octave>
    </pitch>
    <duration>2</duration>
    <voice>1</voice>
    <type>eighth</type>
    <stem>up</stem>
    <beam number="1">end</beam>
   </note>
  </measure>
  <measure number="9">
   <note>
    <pitch>
     <step>G</step>
     <alter>1</alter>
     <octave>2</octave>
    </pitch>
    <duration>4</duration>
    <voice>1</voice>
    <type>quarter</type>
    <stem>up</stem>
   </note>
   <note>
    <pitch>
     <step>A</step>
     <octave>2</octave>
    </pitch>
    <duration>2</duration>
    <voice>1</voice>
    <type>eighth</type>
    <stem>up</stem>
   </note>
  </measure>
  <measure number="10">
   <print new-system="yes"/>
   <note>
    <pitch>
     <step>E</step>
     <octave>2</octave>
    </pitch>
    <duration>1</duration>
    <voice>1</voice>
    <type>16th</type>
    <stem>up</stem>
   </note>
   <note>
    <pitch>
     <step>E</step>
     <octave>3</octave>
    </pitch>
    <duration>1</duration>
    <voice>1</voice>
    <type>16th</type>
    <stem>up</stem>
    <beam number="1">end</beam>
    <beam number="2">end</beam>
   </note>
   <note>
    <rest/>
    <duration>4</duration>
    <voice>1</voice>
    <type>quarter</type>
   </note>
  </measure>
  <measure number="11">
   <note>
    <rest/>
    <duration>6</duration>
    <voice>1</voice>
    <type>quarter</type>
    <dot/>
   </note>
  </measure>
  <measure number="12">
   <note>
    <pitch>
     <step>E</step>
     <octave>3</octave>
    </pitch>
    <duration>6</duration>
    <tie type="start"/>
    <voice>1</voice>
    <type>quarter</type>
    <dot/>
    <stem>down</stem>
    <notations>
     <tied type="start"/>
    </notations>
   </note>
  </measure>
  <measure number="13">
   <note>
    <pitch>
     <step>E</step>
     <octave>3</octave>
    </pitch>
    <duration>4</duration>
    <tie type="stop"/>
    <voice>1</voice>
    <type>quarter</type>
    <stem>down</stem>
    <notations>
     <tied type="stop"/>
    </notations>
   </note>
   <note>
    <pitch>
     <step>E</step>
     <octave>2</octave>
    </pitch>
    <duration>2</duration>
    <voice>1</voice>
    <type>eighth</type>
    <stem>up</stem>
   </note>
  </measure>
  <measure number="14">
   <note>
    <pitch>
     <step>F</step>
     <alter>1</alter>
     <octave>2</octave>
    </pitch>
    <duration>4</duration>
    <voice>1</voice>
    <type>quarter</type>
    <stem>up</stem>
   </note>
   <note>
    <pitch>
     <step>F</step>
     <alter>1</alter>
     <octave>3</octave>
    </pitch>
    <duration>2</duration>
    <voice>1</voice>
    <type>eighth</type>
    <stem>down</stem>
   </note>
  </measure>
  <measure number="15">
   <print new-system="yes"/>
   <note>
    <pitch>
     <step>B</step>
     <octave>2</octave>
    </pitch>
    <duration>4</duration>
    <voice>1</voice>
    <type>quarter</type>
    <stem>up</stem>
   </note>
   <note>
    <rest/>
    <duration>2</duration>
    <voice>1</voice>
    <type>eighth</type>
   </note>
  </measure>
  <measure number="16">
   <note>
    <rest/>
    <duration>4</duration>
    <voice>1</voice>
    <type>quarter</type>
   </note>
   <note>
    <pitch>
     <step>D</step>
     <octave>3</octave>
    </pitch>
    <duration>2</duration>
    <voice>1</voice>
    <type>eighth</type>
    <stem>down</stem>
   </note>
  </measure>
  <measure number="17">
   <note>
    <pitch>
     <step>E</step>
     <octave>3</octave>
    </pitch>
    <duration>4</duration>
    <voice>1</voice>
    <type>quarter</type>
    <stem>down</stem>
   </note>
   <note>
    <pitch>
     <step>E</step>
     <octave>3</octave>
    </pitch>
    <duration>2</duration>
    <voice>1</voice>
    <type>eighth</type>
    <stem>down</stem>
   </note>
  </measure>
  <measure number="18">
   <note>
    <pitch>
     <step>A</step>
     <octave>2</octave>
    </pitch>
    <duration>2</duration>
    <voice>1</voice>
    <type>eighth</type>
    <stem>up</stem>
    <beam number="1">begin</beam>
   </note>
   <note>
    <pitch>
     <step>A</step>
     <octave>2</octave>
    </pitch>
    <duration>2</duration>
    <voice>1</voice>
    <type>eighth</type>
    <stem>up</stem>
    <beam number="1">continue</beam>
   </note>
   <note>
    <pitch>
     <step>A</step>
     <octave>2</octave>
    </pitch>
    <duration>2</duration>
    <voice>1</voice>
    <type>eighth</type>
    <stem>up</stem>
    <beam number="1">end</beam>
   </note>
  </measure>
  <measure number="19">
   <print new-system="yes"/>
   <note>
    <pitch>
     <step>A</step>
     <octave>2</octave>
    </pitch>
    <duration>2</duration>
    <voice>1</voice>
    <type>eighth</type>
    <stem>up</stem>
    <beam number="1">begin</beam>
   </note>
   <note>
    <pitch>
     <step>B</step>
     <octave>2</octave>
    </pitch>
    <duration>2</duration>
    <voice>1</voice>
    <type>eighth</type>
    <stem>up</stem>
    <beam number="1">continue</beam>
   </note>
   <note>
    <pitch>
     <step>C</step>
     <alter>1</alter>
     <octave>3</octave>
    </pitch>
    <duration>2</duration>
    <voice>1</voice>
    <type>eighth</type>
    <stem>up</stem>
    <beam number="1">end</beam>
   </note>
  </measure>
  <measure number="20">
   <note>
    <pitch>
     <step>D</step>
     <octave>3</octave>
    </pitch>
    <duration>6</duration>
    <voice>1</voice>
    <type>quarter</type>
    <dot/>
    <stem>down</stem>
   </note>
  </measure>
  <measure number="21">
   <note>
    <pitch>
     <step>E</step>
     <octave>3</octave>
    </pitch>
    <duration>6</duration>
    <voice>1</voice>
    <type>quarter</type>
    <dot/>
    <stem>down</stem>
   </note>
   <note>
    <chord/>
    <pitch>
     <step>B</step>
     <octave>3</octave>
    </pitch>
    <duration>6</duration>
    <voice>1</voice>
    <type>quarter</type>
    <dot/>
    <stem>down</stem>
   </note>
  </measure>
  <measure number="22">
   <note>
    <pitch>
     <step>A</step>
     <octave>2</octave>
    </pitch>
    <duration>6</duration>
    <tie type="start"/>
    <voice>1</voice>
    <type>quarter</type>
    <dot/>
    <stem>down</stem>
    <notations>
     <tied type="start"/>
    </notations>
   </note>
   <note>
    <chord/>
    <pitch>
     <step>A</step>
     <octave>3</octave>
    </pitch>
    <duration>6</duration>
    <tie type="start"/>
    <voice>1</voice>
    <type>quarter</type>
    <dot/>
    <stem>down</stem>
    <notations>
     <tied type="start"/>
    </notations>
   </note>
  </measure>
  <measure number="23">
   <note>
    <pitch>
     <step>A</step>
     <octave>2</octave>
    </pitch>
    <duration>4</duration>
    <tie type="stop"/>
    <voice>1</voice>
    <type>quarter</type>
    <stem>down</stem>
    <notations>
     <tied type="stop"/>
    </notations>
   </note>
   <note>
    <chord/>
    <pitch>
     <step>A</step>
     <octave>3</octave>
    </pitch>
    <duration>4</duration>
    <tie type="stop"/>
    <voice>1</voice>
    <type>quarter</type>
    <stem>down</stem>
    <notations>
     <tied type="stop"/>
    </notations>
   </note>
   <barline location="right">
    <bar-style>light-heavy</bar-style>
   </barline>
  </measure>
 </part>
</score-partwise>
